<?xml version="1.0" standalone="no"?>
<!DOCTYPE svg PUBLIC "-//W3C//DTD SVG 20010904//EN"
 "http://www.w3.org/TR/2001/REC-SVG-20010904/DTD/svg10.dtd">
<svg version="1.0" xmlns="http://www.w3.org/2000/svg"
 width="300.000000pt" height="300.000000pt" viewBox="0 0 300.000000 300.000000"
 preserveAspectRatio="xMidYMid meet">
<metadata>
Created by potrace 1.14, written by Peter Selinger 2001-2017
</metadata>
<g transform="translate(0.000000,300.000000) scale(0.100000,-0.100000)"
fill="#000000" stroke="none">
<path d="M0 2780 c0 -7 507 -10 1500 -10 993 0 1500 3 1500 10 0 7 -507 10
-1500 10 -993 0 -1500 -3 -1500 -10z"/>
<path d="M810 2260 l0 -90 180 0 180 0 0 -1055 0 -1055 100 0 100 0 0 1055 0
1055 175 0 175 0 0 90 0 90 -455 0 -455 0 0 -90z"/>
<path d="M1960 1205 l0 -1145 105 0 105 0 2 542 3 541 260 -541 260 -542 113
0 112 0 -19 37 c-10 21 -132 274 -271 563 -139 289 -259 539 -267 555 -14 30
-10 38 246 579 144 301 261 550 261 552 0 3 -50 3 -112 2 l-112 -3 -235 -505
-236 -504 -3 507 -2 507 -105 0 -105 0 0 -1145z"/>
</g>
</svg>
